<mxfile host="app.diagrams.net" modified="2022-06-12T15:12:55.832Z" agent="5.0 (Windows NT 10.0; Win64; x64) AppleWebKit/537.36 (KHTML, like Gecko) Chrome/100.0.4896.127 Safari/537.36" etag="TnuPTyWX-PFBbvRdwBZ9" version="20.0.0" type="github">
  <diagram id="Hh9E2Ho-p59nvDQq68b-" name="第 1 页">
    <mxGraphModel dx="1430" dy="652" grid="1" gridSize="10" guides="1" tooltips="1" connect="1" arrows="1" fold="1" page="0" pageScale="1" pageWidth="827" pageHeight="1169" math="0" shadow="0">
      <root>
        <mxCell id="0" />
        <mxCell id="1" parent="0" />
        <mxCell id="9VxjwZfj7DVCWl_01uJX-1" style="rounded=0;orthogonalLoop=1;jettySize=auto;html=1;exitX=0.5;exitY=1;exitDx=0;exitDy=0;entryX=0.25;entryY=0;entryDx=0;entryDy=0;endArrow=none;endFill=0;" edge="1" parent="1" source="9VxjwZfj7DVCWl_01uJX-2" target="9VxjwZfj7DVCWl_01uJX-10">
          <mxGeometry relative="1" as="geometry" />
        </mxCell>
        <mxCell id="9VxjwZfj7DVCWl_01uJX-2" value="学号" style="ellipse;whiteSpace=wrap;html=1;" vertex="1" parent="1">
          <mxGeometry x="30" y="30" width="100" height="70" as="geometry" />
        </mxCell>
        <mxCell id="9VxjwZfj7DVCWl_01uJX-3" style="edgeStyle=none;rounded=0;orthogonalLoop=1;jettySize=auto;html=1;exitX=0.5;exitY=1;exitDx=0;exitDy=0;endArrow=none;endFill=0;" edge="1" parent="1" source="9VxjwZfj7DVCWl_01uJX-4" target="9VxjwZfj7DVCWl_01uJX-10">
          <mxGeometry relative="1" as="geometry" />
        </mxCell>
        <mxCell id="9VxjwZfj7DVCWl_01uJX-4" value="姓名" style="ellipse;whiteSpace=wrap;html=1;" vertex="1" parent="1">
          <mxGeometry x="150" y="35" width="100" height="65" as="geometry" />
        </mxCell>
        <mxCell id="9VxjwZfj7DVCWl_01uJX-5" style="edgeStyle=none;shape=connector;rounded=0;orthogonalLoop=1;jettySize=auto;html=1;exitX=0.5;exitY=1;exitDx=0;exitDy=0;entryX=1;entryY=0;entryDx=0;entryDy=0;labelBackgroundColor=default;fontFamily=Helvetica;fontSize=11;fontColor=default;endArrow=none;endFill=0;strokeColor=default;" edge="1" parent="1" source="9VxjwZfj7DVCWl_01uJX-6" target="9VxjwZfj7DVCWl_01uJX-10">
          <mxGeometry relative="1" as="geometry" />
        </mxCell>
        <mxCell id="9VxjwZfj7DVCWl_01uJX-6" value="入学年份" style="ellipse;whiteSpace=wrap;html=1;" vertex="1" parent="1">
          <mxGeometry x="364" y="32.5" width="100" height="70" as="geometry" />
        </mxCell>
        <mxCell id="9VxjwZfj7DVCWl_01uJX-7" style="edgeStyle=none;shape=connector;rounded=0;orthogonalLoop=1;jettySize=auto;html=1;exitX=0;exitY=1;exitDx=0;exitDy=0;entryX=0.75;entryY=0;entryDx=0;entryDy=0;labelBackgroundColor=default;fontFamily=Helvetica;fontSize=11;fontColor=default;endArrow=none;endFill=0;strokeColor=default;" edge="1" parent="1" source="9VxjwZfj7DVCWl_01uJX-8" target="9VxjwZfj7DVCWl_01uJX-10">
          <mxGeometry relative="1" as="geometry" />
        </mxCell>
        <mxCell id="9VxjwZfj7DVCWl_01uJX-8" value="性别" style="ellipse;whiteSpace=wrap;html=1;" vertex="1" parent="1">
          <mxGeometry x="260" y="35" width="100" height="70" as="geometry" />
        </mxCell>
        <mxCell id="9VxjwZfj7DVCWl_01uJX-9" style="edgeStyle=none;shape=connector;rounded=0;orthogonalLoop=1;jettySize=auto;html=1;entryX=0;entryY=0.5;entryDx=0;entryDy=0;labelBackgroundColor=default;fontFamily=Helvetica;fontSize=11;fontColor=default;endArrow=none;endFill=0;strokeColor=default;" edge="1" parent="1" source="9VxjwZfj7DVCWl_01uJX-10" target="9VxjwZfj7DVCWl_01uJX-13">
          <mxGeometry relative="1" as="geometry" />
        </mxCell>
        <mxCell id="9VxjwZfj7DVCWl_01uJX-10" value="&lt;font style=&quot;font-size: 21px;&quot;&gt;学生&lt;/font&gt;" style="rounded=0;whiteSpace=wrap;html=1;" vertex="1" parent="1">
          <mxGeometry x="150" y="220" width="120" height="60" as="geometry" />
        </mxCell>
        <mxCell id="9VxjwZfj7DVCWl_01uJX-11" value="" style="endArrow=none;html=1;rounded=0;labelBackgroundColor=default;fontFamily=Helvetica;fontSize=11;fontColor=default;strokeColor=default;shape=connector;" edge="1" parent="1">
          <mxGeometry width="50" height="50" relative="1" as="geometry">
            <mxPoint x="120" y="170" as="sourcePoint" />
            <mxPoint x="140" y="150" as="targetPoint" />
          </mxGeometry>
        </mxCell>
        <mxCell id="9VxjwZfj7DVCWl_01uJX-12" style="edgeStyle=none;shape=link;rounded=0;orthogonalLoop=1;jettySize=auto;html=1;exitX=1;exitY=0.5;exitDx=0;exitDy=0;labelBackgroundColor=default;fontFamily=Helvetica;fontSize=11;fontColor=default;endArrow=none;endFill=0;strokeColor=default;" edge="1" parent="1" source="9VxjwZfj7DVCWl_01uJX-13" target="9VxjwZfj7DVCWl_01uJX-15">
          <mxGeometry relative="1" as="geometry" />
        </mxCell>
        <mxCell id="9VxjwZfj7DVCWl_01uJX-13" value="选课" style="rhombus;whiteSpace=wrap;html=1;fontFamily=Helvetica;fontSize=11;fontColor=default;" vertex="1" parent="1">
          <mxGeometry x="464" y="220" width="86" height="60" as="geometry" />
        </mxCell>
        <mxCell id="9VxjwZfj7DVCWl_01uJX-14" value="N" style="text;html=1;align=center;verticalAlign=middle;resizable=0;points=[];autosize=1;strokeColor=none;fillColor=none;fontSize=21;fontFamily=Helvetica;fontColor=default;fontStyle=1" vertex="1" parent="1">
          <mxGeometry x="345" y="255" width="30" height="30" as="geometry" />
        </mxCell>
        <mxCell id="9VxjwZfj7DVCWl_01uJX-15" value="课程" style="rounded=0;whiteSpace=wrap;html=1;fontFamily=Helvetica;fontSize=11;fontColor=default;" vertex="1" parent="1">
          <mxGeometry x="680" y="220" width="120" height="60" as="geometry" />
        </mxCell>
        <mxCell id="9VxjwZfj7DVCWl_01uJX-16" value="M" style="text;html=1;align=center;verticalAlign=middle;resizable=0;points=[];autosize=1;strokeColor=none;fillColor=none;fontSize=19;fontFamily=Helvetica;fontColor=default;" vertex="1" parent="1">
          <mxGeometry x="595" y="255" width="30" height="30" as="geometry" />
        </mxCell>
        <mxCell id="9VxjwZfj7DVCWl_01uJX-17" style="edgeStyle=none;shape=connector;rounded=0;orthogonalLoop=1;jettySize=auto;html=1;exitX=0.5;exitY=1;exitDx=0;exitDy=0;entryX=0.25;entryY=0;entryDx=0;entryDy=0;labelBackgroundColor=default;fontFamily=Helvetica;fontSize=11;fontColor=default;endArrow=none;endFill=0;strokeColor=default;" edge="1" parent="1" source="9VxjwZfj7DVCWl_01uJX-18" target="9VxjwZfj7DVCWl_01uJX-15">
          <mxGeometry relative="1" as="geometry" />
        </mxCell>
        <mxCell id="9VxjwZfj7DVCWl_01uJX-18" value="编号" style="ellipse;whiteSpace=wrap;html=1;fontFamily=Helvetica;fontSize=11;fontColor=default;" vertex="1" parent="1">
          <mxGeometry x="650" y="60" width="100" height="65" as="geometry" />
        </mxCell>
        <mxCell id="9VxjwZfj7DVCWl_01uJX-19" style="edgeStyle=none;shape=connector;rounded=0;orthogonalLoop=1;jettySize=auto;html=1;exitX=0.5;exitY=1;exitDx=0;exitDy=0;entryX=0.5;entryY=0;entryDx=0;entryDy=0;labelBackgroundColor=default;fontFamily=Helvetica;fontSize=11;fontColor=default;endArrow=none;endFill=0;strokeColor=default;" edge="1" parent="1" source="9VxjwZfj7DVCWl_01uJX-20" target="9VxjwZfj7DVCWl_01uJX-15">
          <mxGeometry relative="1" as="geometry" />
        </mxCell>
        <mxCell id="9VxjwZfj7DVCWl_01uJX-20" value="名称" style="ellipse;whiteSpace=wrap;html=1;fontFamily=Helvetica;fontSize=11;fontColor=default;" vertex="1" parent="1">
          <mxGeometry x="760" y="60" width="100" height="65" as="geometry" />
        </mxCell>
        <mxCell id="9VxjwZfj7DVCWl_01uJX-21" style="edgeStyle=none;shape=connector;rounded=0;orthogonalLoop=1;jettySize=auto;html=1;exitX=0.5;exitY=1;exitDx=0;exitDy=0;entryX=1;entryY=0;entryDx=0;entryDy=0;labelBackgroundColor=default;fontFamily=Helvetica;fontSize=11;fontColor=default;endArrow=none;endFill=0;strokeColor=default;" edge="1" parent="1" source="9VxjwZfj7DVCWl_01uJX-22" target="9VxjwZfj7DVCWl_01uJX-15">
          <mxGeometry relative="1" as="geometry" />
        </mxCell>
        <mxCell id="9VxjwZfj7DVCWl_01uJX-22" value="学分数" style="ellipse;whiteSpace=wrap;html=1;fontFamily=Helvetica;fontSize=11;fontColor=default;" vertex="1" parent="1">
          <mxGeometry x="880" y="60" width="100" height="65" as="geometry" />
        </mxCell>
        <mxCell id="9VxjwZfj7DVCWl_01uJX-23" value="" style="endArrow=none;html=1;rounded=0;labelBackgroundColor=default;fontFamily=Helvetica;fontSize=11;fontColor=default;strokeColor=default;shape=connector;" edge="1" parent="1">
          <mxGeometry width="50" height="50" relative="1" as="geometry">
            <mxPoint x="690" y="170" as="sourcePoint" />
            <mxPoint x="710" y="150" as="targetPoint" />
          </mxGeometry>
        </mxCell>
        <mxCell id="9VxjwZfj7DVCWl_01uJX-24" value="" style="edgeStyle=none;shape=connector;rounded=0;orthogonalLoop=1;jettySize=auto;html=1;labelBackgroundColor=default;fontFamily=Helvetica;fontSize=11;fontColor=default;endArrow=none;endFill=0;strokeColor=default;" edge="1" parent="1" source="9VxjwZfj7DVCWl_01uJX-25" target="9VxjwZfj7DVCWl_01uJX-13">
          <mxGeometry relative="1" as="geometry" />
        </mxCell>
        <mxCell id="9VxjwZfj7DVCWl_01uJX-25" value="成绩" style="ellipse;whiteSpace=wrap;html=1;aspect=fixed;fontFamily=Helvetica;fontSize=11;fontColor=default;" vertex="1" parent="1">
          <mxGeometry x="467" y="90" width="80" height="80" as="geometry" />
        </mxCell>
        <mxCell id="9VxjwZfj7DVCWl_01uJX-26" value="" style="edgeStyle=none;shape=link;rounded=0;orthogonalLoop=1;jettySize=auto;html=1;labelBackgroundColor=default;fontFamily=Helvetica;fontSize=11;fontColor=default;endArrow=none;endFill=0;strokeColor=default;" edge="1" parent="1" source="9VxjwZfj7DVCWl_01uJX-28" target="9VxjwZfj7DVCWl_01uJX-10">
          <mxGeometry relative="1" as="geometry" />
        </mxCell>
        <mxCell id="9VxjwZfj7DVCWl_01uJX-27" value="" style="edgeStyle=none;shape=link;rounded=0;orthogonalLoop=1;jettySize=auto;html=1;labelBackgroundColor=default;fontFamily=Helvetica;fontSize=11;fontColor=default;endArrow=none;endFill=0;strokeColor=default;" edge="1" parent="1" source="9VxjwZfj7DVCWl_01uJX-28" target="9VxjwZfj7DVCWl_01uJX-32">
          <mxGeometry relative="1" as="geometry" />
        </mxCell>
        <mxCell id="9VxjwZfj7DVCWl_01uJX-28" value="&lt;b&gt;&lt;font style=&quot;font-size: 19px;&quot;&gt;组成&lt;/font&gt;&lt;/b&gt;" style="rhombus;whiteSpace=wrap;html=1;fontFamily=Helvetica;fontSize=11;fontColor=default;" vertex="1" parent="1">
          <mxGeometry x="170" y="370" width="80" height="80" as="geometry" />
        </mxCell>
        <mxCell id="9VxjwZfj7DVCWl_01uJX-29" style="edgeStyle=none;shape=connector;rounded=0;orthogonalLoop=1;jettySize=auto;html=1;exitX=0.25;exitY=1;exitDx=0;exitDy=0;labelBackgroundColor=default;fontFamily=Helvetica;fontSize=21;fontColor=default;endArrow=none;endFill=0;strokeColor=default;" edge="1" parent="1" source="9VxjwZfj7DVCWl_01uJX-32" target="9VxjwZfj7DVCWl_01uJX-33">
          <mxGeometry relative="1" as="geometry">
            <mxPoint x="140" y="700" as="targetPoint" />
          </mxGeometry>
        </mxCell>
        <mxCell id="9VxjwZfj7DVCWl_01uJX-30" style="edgeStyle=none;shape=connector;rounded=0;orthogonalLoop=1;jettySize=auto;html=1;exitX=0.75;exitY=1;exitDx=0;exitDy=0;labelBackgroundColor=default;fontFamily=Helvetica;fontSize=21;fontColor=default;endArrow=none;endFill=0;strokeColor=default;" edge="1" parent="1" source="9VxjwZfj7DVCWl_01uJX-32" target="9VxjwZfj7DVCWl_01uJX-34">
          <mxGeometry relative="1" as="geometry">
            <mxPoint x="250" y="680" as="targetPoint" />
          </mxGeometry>
        </mxCell>
        <mxCell id="9VxjwZfj7DVCWl_01uJX-31" value="" style="edgeStyle=none;shape=link;rounded=0;orthogonalLoop=1;jettySize=auto;html=1;labelBackgroundColor=default;fontFamily=Helvetica;fontSize=21;fontColor=default;endArrow=none;endFill=0;strokeColor=default;" edge="1" parent="1" source="9VxjwZfj7DVCWl_01uJX-32" target="9VxjwZfj7DVCWl_01uJX-40">
          <mxGeometry relative="1" as="geometry" />
        </mxCell>
        <mxCell id="9VxjwZfj7DVCWl_01uJX-32" value="&lt;b&gt;&lt;font style=&quot;font-size: 19px;&quot;&gt;班级&lt;/font&gt;&lt;/b&gt;" style="whiteSpace=wrap;html=1;fontSize=11;" vertex="1" parent="1">
          <mxGeometry x="150" y="530" width="120" height="60" as="geometry" />
        </mxCell>
        <mxCell id="9VxjwZfj7DVCWl_01uJX-33" value="编号" style="ellipse;whiteSpace=wrap;html=1;fontFamily=Helvetica;fontSize=21;fontColor=default;" vertex="1" parent="1">
          <mxGeometry x="50" y="660" width="120" height="80" as="geometry" />
        </mxCell>
        <mxCell id="9VxjwZfj7DVCWl_01uJX-34" value="所属院系" style="ellipse;whiteSpace=wrap;html=1;fontFamily=Helvetica;fontSize=21;fontColor=default;" vertex="1" parent="1">
          <mxGeometry x="190" y="660" width="120" height="80" as="geometry" />
        </mxCell>
        <mxCell id="9VxjwZfj7DVCWl_01uJX-35" value="" style="endArrow=none;html=1;rounded=0;labelBackgroundColor=default;fontFamily=Helvetica;fontSize=21;fontColor=default;strokeColor=default;shape=connector;" edge="1" parent="1">
          <mxGeometry width="50" height="50" relative="1" as="geometry">
            <mxPoint x="170" y="650" as="sourcePoint" />
            <mxPoint x="140" y="630" as="targetPoint" />
          </mxGeometry>
        </mxCell>
        <mxCell id="9VxjwZfj7DVCWl_01uJX-36" value="1" style="text;html=1;align=center;verticalAlign=middle;resizable=0;points=[];autosize=1;strokeColor=none;fillColor=none;fontSize=21;fontFamily=Helvetica;fontColor=default;" vertex="1" parent="1">
          <mxGeometry x="215" y="475" width="30" height="30" as="geometry" />
        </mxCell>
        <mxCell id="9VxjwZfj7DVCWl_01uJX-37" value="N" style="text;html=1;align=center;verticalAlign=middle;resizable=0;points=[];autosize=1;strokeColor=none;fillColor=none;fontSize=21;fontFamily=Helvetica;fontColor=default;" vertex="1" parent="1">
          <mxGeometry x="215" y="315" width="30" height="30" as="geometry" />
        </mxCell>
        <mxCell id="9VxjwZfj7DVCWl_01uJX-38" value="" style="edgeStyle=none;shape=connector;rounded=0;orthogonalLoop=1;jettySize=auto;html=1;labelBackgroundColor=default;fontFamily=Helvetica;fontSize=18;fontColor=default;endArrow=none;endFill=0;strokeColor=default;" edge="1" parent="1" source="9VxjwZfj7DVCWl_01uJX-40" target="9VxjwZfj7DVCWl_01uJX-41">
          <mxGeometry relative="1" as="geometry" />
        </mxCell>
        <mxCell id="9VxjwZfj7DVCWl_01uJX-39" value="" style="edgeStyle=none;shape=connector;rounded=0;orthogonalLoop=1;jettySize=auto;html=1;labelBackgroundColor=default;fontFamily=Helvetica;fontSize=21;fontColor=default;endArrow=none;endFill=0;strokeColor=default;" edge="1" parent="1" source="9VxjwZfj7DVCWl_01uJX-40" target="9VxjwZfj7DVCWl_01uJX-46">
          <mxGeometry relative="1" as="geometry" />
        </mxCell>
        <mxCell id="9VxjwZfj7DVCWl_01uJX-40" value="&lt;font style=&quot;font-size: 18px;&quot;&gt;班主任&lt;/font&gt;" style="rhombus;whiteSpace=wrap;html=1;fontSize=11;" vertex="1" parent="1">
          <mxGeometry x="447" y="530" width="120" height="60" as="geometry" />
        </mxCell>
        <mxCell id="9VxjwZfj7DVCWl_01uJX-41" value="&lt;font style=&quot;font-size: 21px;&quot;&gt;任职年度&lt;/font&gt;" style="ellipse;whiteSpace=wrap;html=1;fontSize=11;" vertex="1" parent="1">
          <mxGeometry x="447" y="400" width="120" height="60" as="geometry" />
        </mxCell>
        <mxCell id="9VxjwZfj7DVCWl_01uJX-42" style="edgeStyle=none;shape=connector;rounded=0;orthogonalLoop=1;jettySize=auto;html=1;exitX=0.25;exitY=1;exitDx=0;exitDy=0;labelBackgroundColor=default;fontFamily=Helvetica;fontSize=21;fontColor=default;endArrow=none;endFill=0;strokeColor=default;" edge="1" parent="1" source="9VxjwZfj7DVCWl_01uJX-46" target="9VxjwZfj7DVCWl_01uJX-47">
          <mxGeometry relative="1" as="geometry">
            <mxPoint x="540" y="680" as="targetPoint" />
          </mxGeometry>
        </mxCell>
        <mxCell id="9VxjwZfj7DVCWl_01uJX-43" style="edgeStyle=none;shape=connector;rounded=0;orthogonalLoop=1;jettySize=auto;html=1;exitX=0.5;exitY=1;exitDx=0;exitDy=0;labelBackgroundColor=default;fontFamily=Helvetica;fontSize=21;fontColor=default;endArrow=none;endFill=0;strokeColor=default;" edge="1" parent="1" source="9VxjwZfj7DVCWl_01uJX-46" target="9VxjwZfj7DVCWl_01uJX-48">
          <mxGeometry relative="1" as="geometry">
            <mxPoint x="670" y="650" as="targetPoint" />
          </mxGeometry>
        </mxCell>
        <mxCell id="9VxjwZfj7DVCWl_01uJX-44" style="edgeStyle=none;shape=connector;rounded=0;orthogonalLoop=1;jettySize=auto;html=1;exitX=1;exitY=1;exitDx=0;exitDy=0;labelBackgroundColor=default;fontFamily=Helvetica;fontSize=21;fontColor=default;endArrow=none;endFill=0;strokeColor=default;" edge="1" parent="1" source="9VxjwZfj7DVCWl_01uJX-46" target="9VxjwZfj7DVCWl_01uJX-49">
          <mxGeometry relative="1" as="geometry">
            <mxPoint x="800.7999877929688" y="650" as="targetPoint" />
          </mxGeometry>
        </mxCell>
        <mxCell id="9VxjwZfj7DVCWl_01uJX-45" value="" style="edgeStyle=none;shape=connector;rounded=0;orthogonalLoop=1;jettySize=auto;html=1;labelBackgroundColor=default;fontFamily=Helvetica;fontSize=19;fontColor=default;endArrow=none;endFill=0;strokeColor=default;" edge="1" parent="1" source="9VxjwZfj7DVCWl_01uJX-46" target="9VxjwZfj7DVCWl_01uJX-54">
          <mxGeometry relative="1" as="geometry" />
        </mxCell>
        <mxCell id="9VxjwZfj7DVCWl_01uJX-46" value="&lt;font style=&quot;font-size: 21px;&quot;&gt;教师&lt;/font&gt;" style="whiteSpace=wrap;html=1;fontSize=11;" vertex="1" parent="1">
          <mxGeometry x="680" y="530" width="120" height="60" as="geometry" />
        </mxCell>
        <mxCell id="9VxjwZfj7DVCWl_01uJX-47" value="职工号" style="ellipse;whiteSpace=wrap;html=1;fontFamily=Helvetica;fontSize=21;fontColor=default;" vertex="1" parent="1">
          <mxGeometry x="540" y="650" width="120" height="80" as="geometry" />
        </mxCell>
        <mxCell id="9VxjwZfj7DVCWl_01uJX-48" value="姓名" style="ellipse;whiteSpace=wrap;html=1;fontFamily=Helvetica;fontSize=21;fontColor=default;" vertex="1" parent="1">
          <mxGeometry x="690" y="650" width="120" height="80" as="geometry" />
        </mxCell>
        <mxCell id="9VxjwZfj7DVCWl_01uJX-49" value="职称" style="ellipse;whiteSpace=wrap;html=1;fontFamily=Helvetica;fontSize=21;fontColor=default;" vertex="1" parent="1">
          <mxGeometry x="826.9999877929688" y="650" width="120" height="80" as="geometry" />
        </mxCell>
        <mxCell id="9VxjwZfj7DVCWl_01uJX-50" value="" style="endArrow=none;html=1;rounded=0;labelBackgroundColor=default;fontFamily=Helvetica;fontSize=21;fontColor=default;strokeColor=default;shape=connector;" edge="1" parent="1">
          <mxGeometry width="50" height="50" relative="1" as="geometry">
            <mxPoint x="680" y="640" as="sourcePoint" />
            <mxPoint x="660" y="620" as="targetPoint" />
          </mxGeometry>
        </mxCell>
        <mxCell id="9VxjwZfj7DVCWl_01uJX-51" value="N" style="text;html=1;align=center;verticalAlign=middle;resizable=0;points=[];autosize=1;strokeColor=none;fillColor=none;fontSize=21;fontFamily=Helvetica;fontColor=default;" vertex="1" parent="1">
          <mxGeometry x="350" y="570" width="30" height="30" as="geometry" />
        </mxCell>
        <mxCell id="9VxjwZfj7DVCWl_01uJX-52" value="1" style="text;html=1;align=center;verticalAlign=middle;resizable=0;points=[];autosize=1;strokeColor=none;fillColor=none;fontSize=19;fontFamily=Helvetica;fontColor=default;" vertex="1" parent="1">
          <mxGeometry x="595" y="565" width="30" height="30" as="geometry" />
        </mxCell>
        <mxCell id="9VxjwZfj7DVCWl_01uJX-53" value="" style="edgeStyle=none;shape=link;rounded=0;orthogonalLoop=1;jettySize=auto;html=1;labelBackgroundColor=default;fontFamily=Helvetica;fontSize=19;fontColor=default;endArrow=none;endFill=0;strokeColor=default;" edge="1" parent="1" source="9VxjwZfj7DVCWl_01uJX-54" target="9VxjwZfj7DVCWl_01uJX-15">
          <mxGeometry relative="1" as="geometry" />
        </mxCell>
        <mxCell id="9VxjwZfj7DVCWl_01uJX-54" value="&lt;font style=&quot;font-size: 18px;&quot;&gt;任课&lt;/font&gt;" style="rhombus;whiteSpace=wrap;html=1;fontSize=11;" vertex="1" parent="1">
          <mxGeometry x="670" y="380" width="140" height="80" as="geometry" />
        </mxCell>
        <mxCell id="9VxjwZfj7DVCWl_01uJX-55" value="1" style="text;html=1;align=center;verticalAlign=middle;resizable=0;points=[];autosize=1;strokeColor=none;fillColor=none;fontSize=18;fontFamily=Helvetica;fontColor=default;" vertex="1" parent="1">
          <mxGeometry x="760" y="475" width="30" height="30" as="geometry" />
        </mxCell>
        <mxCell id="9VxjwZfj7DVCWl_01uJX-56" value="N" style="text;html=1;align=center;verticalAlign=middle;resizable=0;points=[];autosize=1;strokeColor=none;fillColor=none;fontSize=18;fontFamily=Helvetica;fontColor=default;" vertex="1" parent="1">
          <mxGeometry x="765" y="315" width="30" height="30" as="geometry" />
        </mxCell>
      </root>
    </mxGraphModel>
  </diagram>
</mxfile>
